<svg width="954" height="101" viewBox="0 0 954 101" fill="none" xmlns="http://www.w3.org/2000/svg">
<g clip-path="url(#clip0)">
<g clip-path="url(#clip1)">
<path d="M28.1556 20.2734H61.8756C69.1328 20.2734 75.0156 26.1562 75.0156 33.4134V67.1334C75.0156 74.3906 69.1328 80.2734 61.8756 80.2734H28.1556C20.8984 80.2734 15.0156 74.3906 15.0156 67.1334V33.4134C15.0156 26.1562 20.8984 20.2734 28.1556 20.2734Z" fill="url(#paint0_linear)"/>
<path d="M34.6844 63.8791L34.69 63.8809L32.6385 67.4341C31.8897 68.7311 30.2313 69.1755 28.9342 68.4266C27.6374 67.6778 27.1928 66.0194 27.9416 64.7223L29.4529 62.1048L29.598 61.8536C29.857 61.4814 30.4961 60.8387 31.7746 60.9597C31.7746 60.9597 34.7833 61.2862 35.001 62.8499C35.001 62.8499 35.0306 63.3644 34.6844 63.8791ZM63.7804 54.8041H57.3834C56.9477 54.7748 56.7576 54.6191 56.6826 54.5287L56.6779 54.5205L49.8302 42.6597L49.8213 42.6655L49.4106 42.0768C48.7375 41.0474 47.6688 43.6799 47.6688 43.6799C46.3926 46.6134 47.8499 49.9483 48.3578 50.9563L57.8692 67.4305C58.6178 68.7273 60.2763 69.172 61.5735 68.4229C62.8703 67.6741 63.3149 66.0156 62.5659 64.7186L60.1877 60.5992C60.1415 60.4994 60.0613 60.2284 60.5491 60.2273H63.7804C65.2781 60.2273 66.4921 59.0132 66.4921 57.5155C66.4921 56.0179 65.2781 54.8038 63.7804 54.8038V54.8041ZM51.3552 58.4903C51.3552 58.4903 51.6967 60.2273 50.3756 60.2273H26.7273C25.2297 60.2273 24.0156 59.0132 24.0156 57.5155C24.0156 56.0179 25.2297 54.8038 26.7273 54.8038H32.807C33.7886 54.7471 34.0211 54.1804 34.0211 54.1804L34.0267 54.1832L41.9627 40.4376L41.9603 40.4371C42.1049 40.1716 41.9845 39.9205 41.9636 39.8809L39.3426 35.3413C38.5938 34.0445 39.0381 32.3859 40.3352 31.6373C41.6322 30.8884 43.2906 31.3326 44.0395 32.6296L45.2549 34.735L46.4683 32.6334C47.2171 31.3366 48.8756 30.8919 50.1726 31.641C51.4696 32.3898 51.914 34.048 51.1652 35.3451L40.1219 54.4724C40.0736 54.5889 40.0588 54.7717 40.4181 54.8038H47.0191L47.0205 54.8683C47.0205 54.8683 50.8356 54.9276 51.3552 58.4903Z" fill="white"/>
</g>
<g clip-path="url(#clip2)">
<path opacity="0.5" d="M171.945 28.5626V45.8079L186.909 37.1674V19.9219L171.945 28.5626Z" fill="#13A049"/>
<path opacity="0.5" d="M171.944 28.5626L156.98 19.9219V37.2033L171.944 45.844V28.5626Z" fill="#A2CC39"/>
<path opacity="0.9" d="M186.908 19.9219L171.944 28.5626L156.98 19.9219L142.016 28.5626L171.944 45.844L201.854 28.5626L186.908 19.9219Z" fill="url(#paint1_linear)"/>
<path d="M171.944 45.8439L142.016 28.5625V45.8439L156.98 54.4846V71.7482L171.944 80.3889L186.908 71.7482V54.4846L201.854 45.8439V28.5625L171.944 45.8439Z" fill="url(#paint2_linear)"/>
<path d="M171.945 45.8439V80.3889L186.909 71.7482V54.4846L201.856 45.8439V28.5625L171.945 45.8439Z" fill="url(#paint3_linear)"/>
<path opacity="0.05" d="M171.945 63.1077V80.3891L186.909 71.7484L171.945 63.1077Z" fill="#231F20"/>
<path opacity="0.1" d="M171.944 80.4247V63.1433L156.98 71.784L171.944 80.4247Z" fill="#231F20"/>
<path opacity="0.05" d="M156.98 37.2034L142.016 45.8441L156.98 54.4848L171.944 45.8441L156.98 37.2034Z" fill="#231F20"/>
<path opacity="0.05" d="M186.909 37.2034L171.945 45.8441L186.909 54.4848L201.856 45.8441L186.909 37.2034Z" fill="#231F20"/>
</g>
<g clip-path="url(#clip3)">
<path d="M287.388 15.201C287.045 15.2032 286.707 15.291 286.406 15.4563C285.417 16.0042 285.055 17.2743 285.603 18.2622L287.835 22.2925C282.457 25.6195 278.894 31.3026 278.894 37.7889V38.9941C277.861 37.8058 276.343 37.0556 274.647 37.0556C271.539 37.0556 269.016 39.5788 269.016 42.6864V60.0323C269.016 63.1396 271.539 65.6631 274.647 65.6631C276.343 65.6631 277.861 64.9127 278.894 63.7244V66.1542C278.894 69.43 281.574 72.1103 284.85 72.1103H286.361V79.8267C286.361 82.9345 288.885 85.4577 291.992 85.4577C295.1 85.4577 297.623 82.9342 297.623 79.8267V72.1103H300.238V79.8267C300.238 82.9345 302.761 85.4577 305.869 85.4577C308.977 85.4577 311.5 82.9342 311.5 79.8267V72.1103H313.011C316.287 72.1103 318.968 69.43 318.968 66.1542V63.7244C320 64.9127 321.518 65.6631 323.215 65.6631C326.322 65.6631 328.845 63.1396 328.845 60.0323V42.6864C328.845 39.5788 326.322 37.0556 323.215 37.0556C321.518 37.0556 320 37.8058 318.968 38.9941V37.9928V37.9354C318.968 37.8745 318.968 37.8257 318.968 37.7889C318.968 31.3038 315.396 25.6263 310.02 22.2991L312.259 18.2622C312.806 17.2743 312.444 16.0042 311.455 15.4563C311.154 15.291 310.817 15.2032 310.473 15.201C309.743 15.194 309.027 15.5788 308.649 16.2597L306.309 20.4878C304.02 19.6434 301.53 19.1805 298.931 19.1805C296.333 19.1805 293.839 19.6384 291.552 20.4813L289.212 16.2597C288.834 15.5788 288.118 15.1945 287.388 15.201Z" fill="white"/>
<path d="M274.649 38.5225C272.33 38.5225 270.484 40.3677 270.484 42.6866V60.0325C270.484 62.3514 272.33 64.1966 274.649 64.1966C276.967 64.1966 278.813 62.3514 278.813 60.0325V42.6866C278.813 40.3677 276.967 38.5225 274.649 38.5225ZM323.217 38.5225C320.898 38.5225 319.052 40.3677 319.052 42.6866V60.0325C319.052 62.3514 320.898 64.1966 323.217 64.1966C325.536 64.1966 327.381 62.3514 327.381 60.0325V42.6866C327.381 40.3677 325.536 38.5225 323.217 38.5225Z" fill="#A4C639"/>
<path d="M291.992 58.3167C289.674 58.3167 287.828 60.1619 287.828 62.481V79.8267C287.828 82.1456 289.674 83.9908 291.992 83.9908C294.311 83.9908 296.157 82.1456 296.157 79.8267V62.481C296.157 60.1619 294.311 58.3167 291.992 58.3167ZM305.869 58.3167C303.55 58.3167 301.705 60.1619 301.705 62.481V79.8267C301.705 82.1456 303.55 83.9908 305.869 83.9908C308.188 83.9908 310.033 82.1456 310.033 79.8267V62.481C310.033 60.1619 308.188 58.3167 305.869 58.3167Z" fill="#A4C639"/>
<path d="M287.4 16.6681C287.301 16.6692 287.204 16.6955 287.119 16.7445C286.822 16.909 286.725 17.2502 286.889 17.5479L289.823 22.8473C284.179 25.7841 280.367 31.3648 280.359 37.7698H317.5C317.492 31.3648 313.68 25.7838 308.036 22.8473L310.969 17.5481C311.134 17.2505 311.037 16.909 310.74 16.7445C310.654 16.6955 310.558 16.6692 310.459 16.6681C310.248 16.6657 310.049 16.7712 309.936 16.9741L306.964 22.3308C304.534 21.2527 301.807 20.6473 298.929 20.6473C296.052 20.6473 293.325 21.2524 290.894 22.3308L287.922 16.9741C287.872 16.8801 287.796 16.8018 287.704 16.7478C287.612 16.6939 287.507 16.6663 287.4 16.6681H287.4ZM280.359 39.2365V66.1544C280.358 66.7444 280.473 67.3287 280.699 67.8739C280.924 68.4192 281.254 68.9146 281.672 69.3317C282.089 69.7488 282.584 70.0794 283.129 70.3046C283.675 70.5297 284.259 70.645 284.849 70.6437H313.01C313.6 70.645 314.184 70.5297 314.73 70.3046C315.275 70.0794 315.77 69.7488 316.188 69.3316C316.605 68.9145 316.935 68.4191 317.161 67.8738C317.386 67.3285 317.501 66.7441 317.5 66.1542V39.2367H280.359V39.2365Z" fill="#A4C639"/>
<path d="M290.358 27.8726C289.511 27.8726 288.809 28.5743 288.809 29.422C288.809 30.27 289.511 30.9717 290.358 30.9717C291.206 30.9717 291.908 30.27 291.908 29.422C291.908 28.5743 291.206 27.8726 290.358 27.8726ZM307.5 27.8726C306.652 27.8726 305.95 28.5743 305.95 29.422C305.95 30.27 306.652 30.9717 307.5 30.9717C308.348 30.9717 309.05 30.27 309.05 29.422C309.05 28.5743 308.348 27.8726 307.5 27.8726Z" fill="white"/>
</g>
<g clip-path="url(#clip4)">
<path d="M432.155 20.2734C412.82 20.2734 397.672 44.8734 396.238 65.6509C402.306 76.1813 416.938 80.1396 432.155 80.1396C447.372 80.1396 462.005 76.1813 468.069 65.6506C466.636 44.8734 451.49 20.2734 432.155 20.2734" fill="#B6DEFF"/>
<path d="M463.018 60.7017C463.018 60.7017 458.747 51.469 454.407 46.0825C450.063 40.6938 444.759 34.8262 441.622 34.8262C438.488 34.8262 429.725 50.3411 425.705 50.3411C421.684 50.3411 419.594 43.3079 414.651 43.3079C409.706 43.3079 401.849 60.2681 401.849 60.2681L401.316 63.1434C401.316 63.1434 404.046 75.245 432.602 75.245C461.159 75.245 463.441 63.3419 463.441 63.3419L463.018 60.7014" fill="#66CC66"/>
<path d="M426.152 56.9623C421.717 56.9623 419.444 52.5865 418.211 49.8854C417.103 47.4521 416.911 43.6104 413.766 43.5028C414.075 43.3803 414.372 43.3079 414.651 43.3079C419.594 43.3079 421.684 50.3411 425.705 50.3411C429.725 50.3411 438.488 34.8259 441.622 34.8259C442.213 34.8259 442.878 35.0344 443.6 35.4051C443.066 35.3347 442.381 35.3837 441.854 35.913C440.841 36.9265 431.643 56.9623 426.152 56.9623Z" fill="#17AD49"/>
</g>
<g clip-path="url(#clip5)">
<path d="M590.92 70.2241C590.467 73.586 588.205 76.4951 585.037 77.7879C583.486 78.4336 581.805 78.6281 580.124 78.4336C578.509 78.24 576.892 77.7227 575.212 76.7541C572.885 75.4598 570.558 73.4569 567.843 70.4831C572.109 65.2472 574.694 60.4636 575.664 56.198C576.117 54.1938 576.181 52.3837 575.988 50.7028C575.729 49.087 575.148 47.5997 574.242 46.3071C572.238 43.3985 568.877 41.7176 565.128 41.7176C561.379 41.7176 558.018 43.4632 556.014 46.3071C555.108 47.5999 554.527 49.087 554.268 50.7028C554.01 52.3837 554.074 54.2583 554.592 56.1982C555.561 60.4634 558.211 65.3119 562.413 70.5469C559.763 73.5213 557.371 75.525 555.044 76.818C553.363 77.7879 551.747 78.3052 550.131 78.4983C548.466 78.6843 546.78 78.4627 545.219 77.8526C542.051 76.5598 539.789 73.6498 539.336 70.2886C539.143 68.673 539.272 67.0573 539.918 65.2472C540.112 64.6003 540.435 63.9551 540.758 63.1788C541.211 62.145 541.728 61.0453 542.245 59.9461L542.31 59.8177C546.77 50.1855 551.553 40.3603 556.531 30.7938L556.725 30.4052C557.242 29.4366 557.759 28.4027 558.276 27.4327C558.793 26.3981 559.375 25.4283 560.086 24.5873C561.443 23.0358 563.253 22.1955 565.257 22.1955C567.261 22.1955 569.071 23.0358 570.428 24.5876C571.139 25.4283 571.721 26.3981 572.238 27.4329C572.756 28.4027 573.272 29.4366 573.79 30.4052L573.984 30.7938C578.896 40.4248 583.68 50.25 588.14 59.8821V59.9461C588.658 60.9806 589.11 62.145 589.627 63.1788C589.95 63.9551 590.273 64.6001 590.467 65.2472C590.984 66.9277 591.178 68.5444 590.92 70.2241H590.92ZM565.128 67.1857C561.638 62.7907 559.375 58.6533 558.599 55.1637C558.277 53.6766 558.211 52.3837 558.406 51.2201C558.535 50.1855 558.923 49.2802 559.439 48.5039C560.668 46.7602 562.736 45.6593 565.128 45.6593C567.52 45.6593 569.653 46.6945 570.816 48.5039C571.333 49.2802 571.721 50.1855 571.85 51.2201C572.044 52.3837 571.979 53.741 571.657 55.1637C570.881 58.5893 568.618 62.7262 565.128 67.1857ZM594.281 63.8248C593.958 63.049 593.635 62.209 593.312 61.4979C592.794 60.3349 592.277 59.2352 591.824 58.2007L591.76 58.1367C587.3 48.4399 582.516 38.6147 577.474 28.92L577.281 28.5309C576.763 27.5613 576.246 26.5268 575.729 25.4927C575.083 24.3286 574.436 23.1016 573.402 21.9373C571.333 19.3516 568.36 17.9297 565.192 17.9297C561.96 17.9297 559.052 19.3516 556.918 21.8086C555.949 22.9718 555.238 24.1999 554.591 25.3643C554.074 26.3981 553.557 27.4327 553.04 28.4027L552.846 28.7895C547.869 38.4855 543.021 48.3115 538.56 58.0076L538.496 58.1367C538.043 59.1705 537.526 60.2691 537.009 61.4334C536.663 62.1995 536.34 62.9757 536.039 63.7608C535.199 66.1519 534.941 68.4148 535.263 70.7414C535.975 75.5897 539.207 79.6627 543.667 81.472C545.347 82.1836 547.093 82.5066 548.903 82.5066C549.42 82.5066 550.067 82.4419 550.584 82.3767C552.717 82.1177 554.914 81.408 557.047 80.1792C559.698 78.6926 562.219 76.5598 565.063 73.4569C567.907 76.5598 570.493 78.6928 573.078 80.1792C575.212 81.408 577.409 82.1177 579.543 82.3767C580.06 82.4419 580.706 82.5066 581.223 82.5066C583.033 82.5066 584.843 82.1836 586.459 81.472C590.984 79.6627 594.151 75.5252 594.862 70.7414C595.38 68.4785 595.121 66.2173 594.281 63.8245L594.281 63.8248Z" fill="#E0565B"/>
</g>
<g clip-path="url(#clip6)">
<path d="M675.269 20.2734H708.989C716.246 20.2734 722.129 26.1562 722.129 33.4134V67.1334C722.129 74.3906 716.246 80.2734 708.989 80.2734H675.269C668.012 80.2734 662.129 74.3906 662.129 67.1334V33.4134C662.129 26.1562 668.012 20.2734 675.269 20.2734Z" fill="url(#paint4_linear)"/>
<path d="M681.798 63.8791L681.803 63.8809L679.752 67.4341C679.003 68.7311 677.345 69.1755 676.048 68.4266C674.751 67.6778 674.306 66.0194 675.055 64.7223L676.566 62.1048L676.711 61.8536C676.97 61.4814 677.609 60.8387 678.888 60.9597C678.888 60.9597 681.897 61.2862 682.114 62.8499C682.114 62.8499 682.144 63.3644 681.798 63.8791ZM710.894 54.8041H704.497C704.061 54.7748 703.871 54.6191 703.796 54.5287L703.791 54.5205L696.943 42.6597L696.935 42.6655L696.524 42.0768C695.851 41.0474 694.782 43.6799 694.782 43.6799C693.506 46.6134 694.963 49.9483 695.471 50.9563L704.983 67.4305C705.731 68.7273 707.39 69.172 708.687 68.4229C709.984 67.6741 710.428 66.0156 709.679 64.7186L707.301 60.5992C707.255 60.4994 707.175 60.2284 707.662 60.2273H710.894C712.391 60.2273 713.605 59.0132 713.605 57.5155C713.605 56.0179 712.391 54.8038 710.894 54.8038V54.8041ZM698.469 58.4903C698.469 58.4903 698.81 60.2273 697.489 60.2273H673.841C672.343 60.2273 671.129 59.0132 671.129 57.5155C671.129 56.0179 672.343 54.8038 673.841 54.8038H679.92C680.902 54.7471 681.134 54.1804 681.134 54.1804L681.14 54.1832L689.076 40.4376L689.074 40.4371C689.218 40.1716 689.098 39.9205 689.077 39.8809L686.456 35.3413C685.707 34.0445 686.151 32.3859 687.448 31.6373C688.745 30.8884 690.404 31.3326 691.153 32.6296L692.368 34.735L693.582 32.6334C694.33 31.3366 695.989 30.8919 697.286 31.641C698.583 32.3898 699.027 34.048 698.278 35.3451L687.235 54.4724C687.187 54.5889 687.172 54.7717 687.531 54.8038H694.132L694.134 54.8683C694.134 54.8683 697.949 54.9276 698.469 58.4903Z" fill="white"/>
</g>
<g clip-path="url(#clip7)">
<path d="M789.129 20.2734V24.3745H818.298V20.2734H789.129ZM822.43 20.2734V24.3745H863.997C863.997 24.3745 859.751 20.2734 854.128 20.2734H822.43ZM872.151 20.2734V24.3745H897.299L895.806 20.2734H872.151ZM915.328 20.2734L913.835 24.3745H938.754V20.2734H915.328ZM789.129 28.249V32.3501H818.298V28.249H789.129ZM822.43 28.2549V32.3501H868.821C868.821 32.3501 868.279 29.1938 867.334 28.2549H822.43ZM872.151 28.2549V32.3501H900.056L898.674 28.2549H872.151ZM912.343 28.2549L910.961 32.3501H938.754V28.2549H912.343ZM797.511 36.2247V40.331H810.144V36.2247H797.511ZM830.813 36.2247V40.331H843.445V36.2247H830.813ZM855.732 36.2247V40.331H868.364C868.364 40.331 869.166 38.1622 869.166 36.2244H855.732V36.2247ZM880.534 36.2247V40.331H902.93L901.437 36.2244H880.534V36.2247ZM909.591 36.2247L908.093 40.3313H930.6V36.2247H909.591ZM797.511 44.2061V48.3066H810.144V44.2061H797.511ZM830.813 44.2061V48.3066H863.078C863.078 48.3066 865.777 46.2022 866.637 44.2055H830.813V44.2061ZM880.534 44.2061V48.3066H893.166V46.0237L893.968 48.3066H917.107L917.968 46.0237V48.3066H930.6V44.2061H906.887L905.628 47.68L904.364 44.2061H880.534ZM797.511 52.1811V56.2822H810.144V52.1811H797.511ZM830.813 52.1811V56.2822H866.637C865.777 54.292 863.078 52.1811 863.078 52.1811H830.813ZM880.534 52.1811V56.2822H893.166V52.1811H880.534ZM895.461 52.1811L896.988 56.2822H914.339L915.79 52.1811H895.461ZM917.968 52.1811V56.2822H930.6V52.1811H917.968ZM797.511 60.1568V64.2578H810.144V60.1568H797.511ZM830.813 60.1568V64.2578H843.445V60.1568H830.813ZM855.732 60.1568V64.2578H869.166C869.166 62.3223 868.364 60.1568 868.364 60.1568H855.732ZM880.534 60.1568V64.2578H893.166V60.1568H880.534ZM898.329 60.1568L899.81 64.2578H911.441L912.934 60.1568H898.329ZM917.968 60.1568V64.2578H930.6V60.1568H917.968ZM789.357 68.1327V72.2393H818.526V68.1324H789.357V68.1327ZM822.43 68.1327V72.2393H867.334C868.279 71.2989 868.821 68.1324 868.821 68.1324H822.43V68.1327ZM872.38 68.1327V72.2393H893.166V68.1324H872.38V68.1327ZM901.203 68.1327L902.725 72.2393H908.643L910.071 68.1324H901.203V68.1327ZM917.968 68.1327V72.2393H938.983V68.1324H917.968V68.1327ZM789.357 76.1138V80.2149H818.526V76.1138H789.357ZM822.43 76.1138V80.2088H854.128C859.751 80.2088 863.997 76.1135 863.997 76.1135H822.43V76.1138ZM872.38 76.1138V80.2149H893.166V76.1138H872.38ZM904.089 76.1138L905.552 80.2029L905.804 80.2088L907.291 76.1135H904.089V76.1138ZM917.968 76.1138V80.2149H938.983V76.1138H917.968Z" fill="#1F70C1"/>
</g>
</g>
<defs>
<linearGradient id="paint0_linear" x1="45.0156" y1="20.2734" x2="45.0156" y2="80.2734" gradientUnits="userSpaceOnUse">
<stop stop-color="#17C9FB"/>
<stop offset="1" stop-color="#1A74E8"/>
</linearGradient>
<linearGradient id="paint1_linear" x1="201.861" y1="32.8806" x2="142.016" y2="32.8806" gradientUnits="userSpaceOnUse">
<stop stop-color="#37BDA6"/>
<stop offset="1" stop-color="#8AD3B8"/>
</linearGradient>
<linearGradient id="paint2_linear" x1="201.861" y1="54.4747" x2="142.016" y2="54.4747" gradientUnits="userSpaceOnUse">
<stop offset="0.5" stop-color="#4BB6AD"/>
<stop offset="1" stop-color="#78BBC1"/>
</linearGradient>
<linearGradient id="paint3_linear" x1="171.94" y1="54.4747" x2="201.862" y2="54.4747" gradientUnits="userSpaceOnUse">
<stop stop-color="#4379A7"/>
<stop offset="1" stop-color="#7CC9B8"/>
</linearGradient>
<linearGradient id="paint4_linear" x1="692.129" y1="20.2734" x2="692.129" y2="80.2734" gradientUnits="userSpaceOnUse">
<stop stop-color="#17C9FB"/>
<stop offset="1" stop-color="#1A74E8"/>
</linearGradient>
<clipPath id="clip0">
<rect width="953.966" height="100.547" fill="white" transform="translate(0.015625)"/>
</clipPath>
<clipPath id="clip1">
<rect width="60" height="60" fill="white" transform="translate(15.0156 20.2734)"/>
</clipPath>
<clipPath id="clip2">
<rect width="60" height="60.7031" fill="white" transform="translate(142.016 19.9219)"/>
</clipPath>
<clipPath id="clip3">
<rect width="60" height="70.5469" fill="white" transform="translate(269.016 15)"/>
</clipPath>
<clipPath id="clip4">
<rect width="72.1127" height="60" fill="white" transform="translate(396.016 20.2734)"/>
</clipPath>
<clipPath id="clip5">
<rect width="60" height="64.6875" fill="white" transform="translate(535.129 17.9297)"/>
</clipPath>
<clipPath id="clip6">
<rect width="60" height="60" fill="white" transform="translate(662.129 20.2734)"/>
</clipPath>
<clipPath id="clip7">
<rect width="149.854" height="60" fill="white" transform="translate(789.129 20.2734)"/>
</clipPath>
</defs>
</svg>
